<svg xmlns="http://www.w3.org/2000/svg" xmlns:xlink="http://www.w3.org/1999/xlink" width="20" height="20" viewBox="0 0 20 20"><defs><style>.a{fill:#c4c4c4;opacity:0.42;}.b{clip-path:url(#a);}.c{fill:none;stroke:#c4c4c4;stroke-miterlimit:10;}</style><clipPath id="a"><rect class="a" width="20" height="20" transform="translate(43 229)"/></clipPath></defs><g class="b" transform="translate(-43 -229)"><g transform="translate(-1149.458 -439.843)"><path class="c" d="M1239,677.288" transform="translate(-32.603 -3.736)"/><path class="c" d="M1216.5,677.288" transform="translate(-16.725 -3.736)"/><path class="c" d="M1201.5,695.933l2.356-8.07h12.459a.666.666,0,0,1,.648.683v.328" transform="translate(-6.147 -10.853)"/><path class="c" d="M1196.5,703.454" transform="translate(-2.615 -21.98)"/><path class="c" d="M1200.5,693.565l.745-9.932h12.9a.666.666,0,0,1,.649.683v.558" transform="translate(-5.441 -7.864)"/><path class="c" d="M1207.28,675.5v-1.128a.676.676,0,0,0-.648-.7l-6.687-.082L1198.3,672l-4.856.082a.676.676,0,0,0-.648.7l1.766,12.359a.676.676,0,0,0,.648.7H1208.4c.358,0,.5-.465.648-.7l3.1-6.342a.679.679,0,0,0-.4-.975.6.6,0,0,0-.105-.009h-5.68l-1.472,1.192h-5.592l-3.826,6.689" transform="translate(0 0)"/></g></g></svg>