<svg xmlns="http://www.w3.org/2000/svg" xmlns:xlink="http://www.w3.org/1999/xlink" width="20" height="20" viewBox="0 0 20 20"><defs><style>.a{fill:#5490ff;}.a,.c{stroke:#c4c4c4;}.b{clip-path:url(#a);}.c{fill:none;stroke-miterlimit:10;}</style><clipPath id="a"><rect class="a" width="20" height="20" transform="translate(43 208)"/></clipPath></defs><g class="b" transform="translate(-43 -208)"><g transform="translate(-1155.545 -396.776)"><path class="c" d="M1250,628.653" transform="translate(-32.91 -14.252)"/><path class="c" d="M1202.375,629.621v-8.388a.808.808,0,0,1,.854-.752l5.315.171,2.33-1.113h5.36a.808.808,0,0,1,.855.752v8.646a.737.737,0,0,1-.779.685h-15.456a.809.809,0,0,1-.856-.753V618.751a.807.807,0,0,1,.854-.751h2.836" transform="translate(0 -7.24)"/><path class="c" d="M1232.373,629.5" transform="translate(-21.308 -14.81)"/><path class="c" d="M1232.718,623.5" transform="translate(-21.535 -10.86)"/><path class="c" d="M1243.75,611.564" transform="translate(-28.796 -3.004)"/><path class="c" d="M1233.663,607" transform="translate(-22.157)"/><path class="c" d="M1210.795,613.494v-5.831a.75.75,0,0,1,.814-.663h8.314l2.136,1.742v3.726" transform="translate(-7.105)"/><path class="c" d="M1239.068,609.205h-1.663a.436.436,0,0,1-.473-.386v-1.357" transform="translate(-24.309 -0.305)"/></g></g></svg>