<svg xmlns="http://www.w3.org/2000/svg" width="19" height="19" viewBox="0 0 19 19"><defs><style>.a{fill:#fff;stroke:#fff;}.b{stroke:none;}.c{fill:none;}</style></defs><g transform="translate(-240 -68)"><g class="a" transform="translate(240 68)"><rect class="b" width="5" height="5"/><rect class="c" x="0.5" y="0.5" width="4" height="4"/></g><g class="a" transform="translate(240 75)"><rect class="b" width="5" height="5"/><rect class="c" x="0.5" y="0.5" width="4" height="4"/></g><g class="a" transform="translate(240 82)"><rect class="b" width="5" height="5"/><rect class="c" x="0.5" y="0.5" width="4" height="4"/></g><g class="a" transform="translate(247 68)"><rect class="b" width="5" height="5"/><rect class="c" x="0.5" y="0.5" width="4" height="4"/></g><g class="a" transform="translate(247 75)"><rect class="b" width="5" height="5"/><rect class="c" x="0.5" y="0.5" width="4" height="4"/></g><g class="a" transform="translate(247 82)"><rect class="b" width="5" height="5"/><rect class="c" x="0.5" y="0.5" width="4" height="4"/></g><g class="a" transform="translate(254 68)"><rect class="b" width="5" height="5"/><rect class="c" x="0.5" y="0.5" width="4" height="4"/></g><g class="a" transform="translate(254 75)"><rect class="b" width="5" height="5"/><rect class="c" x="0.5" y="0.5" width="4" height="4"/></g><g class="a" transform="translate(254 82)"><rect class="b" width="5" height="5"/><rect class="c" x="0.5" y="0.5" width="4" height="4"/></g></g></svg>